<?xml version="1.0" standalone="no"?>
<!DOCTYPE svg PUBLIC "-//W3C//DTD SVG 20010904//EN"
 "http://www.w3.org/TR/2001/REC-SVG-20010904/DTD/svg10.dtd">
<svg version="1.0" xmlns="http://www.w3.org/2000/svg"
 width="310.000000pt" height="310.000000pt" viewBox="0 0 310.000000 310.000000"
 preserveAspectRatio="xMidYMid meet">
<metadata>
Created by potrace 1.11, written by Peter Selinger 2001-2013
</metadata>
<g transform="translate(0.000000,310.000000) scale(0.100000,-0.100000)"
fill="#000000" stroke="none">
<path d="M1679 3053 c-23 -26 -82 -73 -92 -73 -4 0 -5 -4 -2 -10 3 -5 3 -10
-2 -10 -4 0 -21 -11 -38 -25 -16 -14 -45 -37 -64 -52 -18 -16 -38 -32 -45 -38
-6 -5 -38 -32 -71 -60 -33 -27 -77 -65 -97 -84 -21 -18 -50 -43 -67 -55 -16
-11 -62 -50 -102 -85 -171 -147 -194 -167 -218 -186 -66 -50 -61 2 -61 -649 0
-566 -8 -756 -31 -764 -5 -2 -9 -10 -9 -18 0 -8 -4 -14 -8 -14 -13 0 -59 55
-67 79 -3 11 -10 21 -15 21 -7 0 -34 51 -84 160 -17 38 -54 158 -62 200 -44
251 -37 556 16 695 6 17 11 31 10 33 -5 7 45 132 52 132 4 0 8 7 8 16 0 20 99
179 143 231 70 83 236 240 277 263 11 6 12 12 4 20 -8 8 -25 5 -65 -10 -63
-25 -217 -106 -240 -126 -8 -8 -19 -14 -23 -14 -4 0 -13 -6 -20 -12 -7 -7 -33
-29 -57 -48 -67 -52 -180 -168 -229 -235 -24 -33 -46 -62 -49 -65 -19 -16
-115 -198 -147 -277 -19 -46 -36 -93 -39 -106 -2 -12 -12 -47 -21 -77 -9 -30
-18 -71 -20 -90 -3 -19 -9 -51 -13 -70 -12 -46 -14 -85 -15 -260 -1 -202 12
-299 59 -450 15 -47 29 -95 32 -107 3 -13 9 -23 14 -23 5 0 9 -7 9 -15 0 -17
48 -117 60 -125 4 -3 15 -21 24 -40 9 -19 30 -50 46 -69 17 -18 30 -37 30 -41
0 -12 173 -186 215 -216 22 -16 42 -32 45 -35 11 -14 120 -79 120 -72 0 4 4 3
8 -2 9 -13 103 -61 167 -86 72 -28 181 -54 290 -70 75 -11 381 -10 455 2 105
16 125 20 150 29 14 5 41 12 60 16 72 14 271 110 349 169 8 5 64 60 126 120
141 139 202 221 297 404 l43 83 6 -103 c7 -111 15 -149 32 -149 6 0 7 -3 4 -6
-8 -8 27 -40 66 -60 27 -14 28 -14 108 64 67 67 78 81 65 91 -11 10 -19 9 -35
-1 -17 -11 -23 -10 -37 4 -15 15 -17 56 -16 391 0 334 2 378 17 408 10 18 24
39 32 47 8 8 12 19 10 25 -5 15 -36 17 -44 3 -5 -7 -17 -18 -27 -23 -16 -9
-29 -4 -70 26 -28 20 -67 47 -86 59 l-36 21 -64 -44 c-36 -24 -80 -52 -97 -61
-18 -10 -33 -21 -33 -26 0 -4 -5 -8 -12 -8 -6 0 -20 -8 -31 -17 -18 -17 -19
-17 -33 2 -8 10 -14 27 -14 37 0 9 -21 39 -47 66 -67 68 -183 117 -273 116
-66 0 -109 -6 -145 -19 -12 -5 -5 7 20 31 115 112 141 199 129 439 l-7 134 31
30 c19 20 41 31 59 31 21 0 38 12 68 47 22 25 55 62 73 82 19 20 66 71 105
115 40 43 95 104 124 135 l51 56 -51 7 c-29 4 -81 10 -117 12 -36 3 -96 12
-135 21 -38 9 -85 19 -103 22 -18 3 -35 10 -38 14 -3 5 -18 9 -34 9 -16 0 -31
4 -35 9 -3 5 -20 13 -37 17 -18 3 -39 10 -48 15 -8 5 -46 23 -85 40 -38 17
-100 46 -137 65 -77 39 -88 41 -109 17z m-205 -1149 l-2 -765 -22 -24 -22 -23
-56 26 c-68 32 -160 39 -205 15 -16 -8 -31 -12 -34 -10 -5 5 25 57 38 67 11 8
74 142 87 185 36 120 41 194 41 670 l1 470 39 35 c21 19 61 54 87 77 27 23 49
43 49 43 0 0 -1 -345 -1 -766z m298 626 c10 -5 24 -10 33 -10 8 0 31 -7 52
-16 21 -9 48 -21 61 -25 12 -5 32 -13 45 -18 12 -5 55 -21 95 -37 l73 -27 -38
-13 c-20 -7 -48 -26 -63 -41 -44 -48 -49 -83 -45 -274 4 -185 -2 -233 -37
-281 -11 -16 -17 -28 -14 -28 3 0 -17 -22 -44 -50 -49 -49 -76 -67 -49 -32 8
9 16 19 20 22 5 5 28 55 49 107 13 35 17 156 11 323 -5 122 7 162 66 222 20
21 34 40 31 43 -3 3 -21 -2 -41 -10 -46 -19 -90 -19 -147 1 -57 20 -108 24
-140 11 -33 -14 -78 -56 -86 -79 -14 -46 -21 -6 -22 131 l0 149 86 -29 c48
-16 95 -33 104 -39z m-21 -241 c39 -8 66 -8 93 -1 36 10 37 10 22 -7 -9 -10
-16 -23 -16 -29 0 -7 -4 -12 -8 -12 -14 0 -45 -111 -44 -156 l1 -42 -41 0
c-28 -1 -48 -8 -64 -23 -13 -12 -24 -25 -24 -28 0 -3 18 -7 39 -7 50 -1 86
-24 99 -63 11 -31 11 -31 -23 -31 -37 0 -85 -18 -85 -32 0 -4 12 -8 28 -8 32
0 64 -25 80 -62 20 -47 -11 -109 -97 -196 -23 -23 -37 -44 -32 -47 6 -3 34 6
64 19 59 26 179 56 224 56 36 0 145 -28 157 -40 5 -5 -7 -16 -30 -27 -21 -10
-41 -20 -44 -23 -5 -5 -12 -9 -89 -52 -60 -34 -124 -110 -142 -171 -6 -17 -18
-68 -27 -112 -9 -44 -21 -80 -27 -80 -71 -4 -121 -39 -149 -109 -20 -48 -20
-46 7 -40 77 16 106 16 141 -1 46 -22 93 -77 112 -130 17 -51 17 -74 0 -116
-22 -52 -66 -83 -136 -93 -73 -11 -106 -19 -125 -32 -11 -8 -22 -14 -26 -14
-7 0 -10 1636 -3 1662 6 21 62 58 90 58 11 0 45 -5 75 -11z m889 -780 c3 -3
22 -18 43 -33 l37 -28 0 -264 0 -265 -67 -66 -68 -67 -3 124 c-2 104 0 130 15
157 10 18 22 33 27 33 5 0 7 3 3 6 -3 3 3 15 14 27 30 33 24 47 -21 47 l-40 0
0 160 c0 192 11 224 60 169z m-407 -7 c15 -13 17 -35 17 -169 l0 -153 -58 0
c-57 0 -58 -1 -82 -40 -14 -22 -28 -40 -32 -40 -5 0 -8 62 -8 139 0 151 10
198 56 258 23 30 30 33 57 27 18 -3 40 -13 50 -22z m307 -172 l0 -150 -52 0
-53 0 2 112 c1 62 5 118 7 125 5 12 74 61 89 62 4 1 7 -66 7 -149z m-496 123
c-5 -10 -11 -188 -14 -395 l-5 -378 -25 -24 c-24 -23 -47 -30 -98 -27 -22 1
-21 3 12 37 50 51 56 95 57 407 1 150 4 284 8 300 3 15 20 43 36 62 34 39 41
43 29 18z m-771 -394 c36 -10 46 -22 28 -33 -4 -3 -22 -1 -39 3 -50 15 -106
-21 -117 -74 -6 -29 -6 -29 9 -10 17 20 58 30 83 21 10 -4 7 -15 -14 -48 -15
-24 -36 -52 -45 -62 -10 -11 -18 -24 -18 -28 0 -5 -6 -15 -12 -22 -31 -33 -88
41 -88 114 0 103 103 170 213 139z m977 -157 c0 -135 -2 -151 -20 -172 -11
-13 -20 -25 -20 -28 0 -6 49 -51 89 -83 13 -11 22 -21 20 -22 -20 -15 -168
-79 -224 -97 -74 -23 -83 -25 -155 -35 l-45 -6 43 22 c45 23 112 100 112 129
0 9 3 20 8 24 10 10 9 2 11 221 l1 195 90 0 90 0 0 -148z m290 -4 l-1 -153
-35 -22 c-43 -28 -51 -28 -58 -5 -5 15 -9 176 -7 290 l1 42 50 0 50 0 0 -152z
m-1189 110 c1 -7 3 -39 4 -70 1 -31 5 -62 7 -70 3 -7 2 -23 -3 -35 -7 -20 -14
-21 -83 -20 -42 0 -76 3 -76 5 0 10 35 62 42 62 4 0 8 4 8 9 0 14 82 131 92
131 4 0 9 -6 9 -12z m-325 -71 c0 -63 26 -121 68 -156 9 -7 16 -18 16 -23 0
-13 -59 -88 -69 -88 -10 0 -44 28 -124 102 l-72 67 55 48 c30 26 68 62 85 80
16 17 32 31 35 32 3 1 5 -27 6 -62z m334 -212 c9 -26 -7 -60 -36 -76 -13 -7
-24 -16 -24 -20 0 -8 -42 1 -50 11 -3 3 -26 14 -51 23 -25 10 -54 24 -65 31
-18 13 -18 15 -2 33 15 16 32 19 119 18 93 0 103 -2 109 -20z m0 -104 c0 -5
16 -26 35 -47 29 -30 37 -34 49 -24 19 15 35 6 31 -18 -2 -9 -4 -25 -4 -36 -1
-13 -6 -16 -18 -11 -10 4 -49 16 -87 27 -38 10 -74 22 -80 26 -6 4 -14 7 -18
7 -10 0 -22 15 -12 15 5 0 27 16 49 35 41 35 55 42 55 26z"/>
</g>
</svg>
